<svg xmlns="http://www.w3.org/2000/svg" version="1.1" viewBox="20 41.8 34.2 43.8" style="max-height: 500px" width="34.2" height="43.8">
<path transform="translate(28,46)" fill="#F4A6C5" d="M0 0 C12 0 12 0 15 1 C15 1.66 15 2.32 15 3 C15.99 3 16.98 3 18 3 C18 7.62 18 12.24 18 17 C17.01 17 16.02 17 15 17 C15 17.66 15 18.32 15 19 C15.99 19 16.98 19 18 19 C18 23.29 18 27.58 18 32 C17.01 32 16.02 32 15 32 C15 32.66 15 33.32 15 34 C12 35 12 35 0 35 C0 23.45 0 11.9 0 0 Z M6 6 C6 8.97 6 11.94 6 15 C7.98 15 9.96 15 12 15 C12 12.03 12 9.06 12 6 C10.02 6 8.04 6 6 6 Z M6 21 C6 23.64 6 26.28 6 29 C7.98 29 9.96 29 12 29 C12 26.36 12 23.72 12 21 C10.02 21 8.04 21 6 21 Z"/>
<path transform="translate(28,52)" fill="#7762B1" d="M0 0 C1.98 0 3.96 0 6 0 C6 9.57 6 19.14 6 29 C4.02 29 2.04 29 0 29 C0 19.43 0 9.86 0 0 Z"/>
<path transform="translate(28,46)" fill="#CF86C4" d="M0 0 C1.93742341 -0.02703381 3.87495479 -0.04641125 5.8125 -0.0625 C6.89144531 -0.07410156 7.97039063 -0.08570313 9.08203125 -0.09765625 C12 0 12 0 15 1 C15 1.66 15 2.32 15 3 C15.99 3 16.98 3 18 3 C18 5.31 18 7.62 18 10 C17.01 10 16.02 10 15 10 C15 9.01 15 8.02 15 7 C10.05 6.67 5.1 6.34 0 6 C0 4.02 0 2.04 0 0 Z"/>
<path transform="translate(40,69)" fill="#FFC3C3" d="M0 0 C0.99 0 1.98 0 3 0 C3 0.99 3 1.98 3 3 C3.99 3 4.98 3 6 3 C6 4.98 6 6.96 6 9 C5.01 9 4.02 9 3 9 C3 9.66 3 10.32 3 11 C-1.455 11.495 -1.455 11.495 -6 12 C-6 10.02 -6 8.04 -6 6 C-4.02 6 -2.04 6 0 6 C0 4.02 0 2.04 0 0 Z"/>
<path transform="translate(28,52)" fill="#976FB6" d="M0 0 C1.98 0 3.96 0 6 0 C6 3.96 6 7.92 6 12 C4.02 12 2.04 12 0 12 C0 8.04 0 4.08 0 0 Z"/>
<path transform="translate(40,47)" fill="#DD8CC6" d="M0 0 C0.99 0 1.98 0 3 0 C3 0.66 3 1.32 3 2 C3.99 2 4.98 2 6 2 C6 4.31 6 6.62 6 9 C5.01 9 4.02 9 3 9 C3 8.01 3 7.02 3 6 C2.01 6 1.02 6 0 6 C0 4.02 0 2.04 0 0 Z"/>
<path transform="translate(34,75)" fill="#C9B3E8" d="M0 0 C1.98 0 3.96 0 6 0 C6 1.98 6 3.96 6 6 C4.02 6 2.04 6 0 6 C0 4.02 0 2.04 0 0 Z"/>
<path transform="translate(28,75)" fill="#715BA4" d="M0 0 C1.98 0 3.96 0 6 0 C6 1.98 6 3.96 6 6 C4.02 6 2.04 6 0 6 C0 4.02 0 2.04 0 0 Z"/>
<path transform="translate(28,52)" fill="#A776BB" d="M0 0 C1.98 0 3.96 0 6 0 C6 1.98 6 3.96 6 6 C4.02 6 2.04 6 0 6 C0 4.02 0 2.04 0 0 Z"/>
<path transform="translate(28,64)" fill="#8569B4" d="M0 0 C1.98 0 3.96 0 6 0 C6 1.65 6 3.3 6 5 C4.02 5 2.04 5 0 5 C0 3.35 0 1.7 0 0 Z"/>
<path transform="translate(40,53)" fill="#EF97C7" d="M0 0 C0.99 0 1.98 0 3 0 C3 1.98 3 3.96 3 6 C2.01 6 1.02 6 0 6 C0 4.02 0 2.04 0 0 Z"/>
</svg>